<svg xmlns="http://www.w3.org/2000/svg" width="762.88" height="123.52" viewBox="0 0 2384 386">
    <path fill="currentColor"
        d="M154 362c-8.29-1.3-19.39-6.95-27-10.75-18.25-9.13-35.51-19.9-51-33.25-19.47-16.77-35.71-35.67-50-57-12.39-18.5-19.28-30.76-22.58-53-.8-5.38-1.53-9.51-1.41-15 .78-34.41 16.86-62.24 37.12-89C75.51 55.95 120.4 21.65 180 8.79c8.72-1.88 23.29-4.68 32-4.79 28.38-.33 53.09-.94 81 5.65l21 6.66c48.91 17.46 86.9 49.7 116.86 91.69 16.31 22.87 34.8 54.21 35.14 83 .08 7.37-.12 14.73-1.46 22-3.53 19.09-19.81 47.18-31.12 63-33.25 46.53-85.38 81.2-141.42 93.34-26.1 5.65-48.63 5.66-75 5.66v-72c33.26 0 61.43 3.97 91-15.09 30.85-19.88 51.94-59.15 52-95.91v-20c-.06-4.96-.94-9.15-1.75-14-4.16-24.74-14.46-44.05-33.25-60.83-14.78-13.19-39.19-22.14-59-22.17H155l-1 39v248m1328-113c0 16.73.87 33.5-2.45 50-5.7 28.36-24.03 53.8-48.55 68.94-27.35 16.88-64.72 18.95-94 5.75-35.04-15.8-60.94-53.99-61-92.69V146c0-38.05-3.02-67.24 21.16-100 40.47-54.87 122.84-54.45 163.36 0 11.8 15.86 20.45 38.08 20.48 58v33h-54c-8.64-.02-8.98-.36-9-9v-19c-.25-20.95-19.06-42.41-41-40.82-24.08 1.75-36.96 20.99-37 43.82v162c.01 8.57 1.56 17.58 6.12 25 2.86 4.67 6.46 8.83 10.88 12.07 27.4 20.09 60.63-3.98 61-35.07v-20c.04-1.95-.1-4.63 1.6-5.98 1.59-1.25 5.41-1.02 7.4-1.02zM2267 5.21h6c57.3-.88 104.91 45.34 105 102.79v175c-.06 40.25-30.05 78.93-67 92.94-15.29 5.79-26.02 6.24-42 6.06-51.06-.6-96.92-50.72-97-101V109c.2-41.76 25.09-78.61 63-95.69 11.68-5.26 19.75-6.11 32-8.1m-247 5h23c58.81-.12 105.91 45.67 106 104.79v151c-.02 12.9-2.56 25.81-6.67 38-3.34 9.92-8.64 19.68-14.98 28-15.61 20.47-35.46 34.21-60.35 40.85-8.2 2.18-16.54 3.11-25 3.15l-15 1h-76c-2.3 0-6.41.38-7.98-1.6-1.17-1.48-1.01-4.58-1.02-6.4V222l1-15V25c0-2.66-.48-10.51 1.02-12.4 1.57-1.98 5.68-1.6 7.98-1.6zM563 242v127c-.01 1.82.15 4.92-1.02 6.4-1.57 1.98-5.68 1.6-7.98 1.6h-48c-7.49-.14-6.99-2.26-7-9V222l1-15V31c0-3.58-.93-16.97 1.6-18.98 1.59-1.25 5.41-1.02 7.4-1.02h99c24.41.04 49.81 8.72 68 25.17 24.76 22.39 32.15 55.82 32 87.83l-.83 10c-.72 7.44-1.37 14.67-3.06 22-6.34 27.52-22.64 53.31-46.11 69.25C627.9 245.7 597.31 242 563 242M726 11h63v145h79V11h54c8.64.02 8.98.36 9 9v254l1 17v79c-.04 1.95.1 4.63-1.6 5.98-1.59 1.25-5.41 1.02-7.4 1.02h-48c-1.95-.04-4.63.1-5.98-1.6-1.25-1.59-1.02-5.41-1.02-7.4V220h-79v145c0 2.41.4 8.6-1.02 10.4-1.57 1.98-5.68 1.6-7.98 1.6h-48c-7.49-.14-6.99-2.26-7-9V58l1-15zm294 209v138c0 3.48.92 15.99-1.6 17.98-1.59 1.25-5.41 1.02-7.4 1.02h-48c-7.49-.14-6.99-2.26-7-9V222l1-15V18c.04-1.95-.1-4.63 1.6-5.98 1.59-1.25 5.41-1.02 7.4-1.02h74c33.42 0 56.9-1.85 86 18.91 26.2 18.69 43.95 48.44 44 81.09v10c-.15 12.58-4.22 27.75-9.76 39-4.48 9.13-14.2 26.52-23.24 31 2.34 5.05 7.06 10.01 10.31 15 5.87 9.02 9.07 15.77 12.35 26 5.81 18.14 5.34 31.49 5.34 50v81c0 2.66.48 10.51-1.02 12.4-1.57 1.98-5.68 1.6-7.98 1.6h-48c-7.49-.14-6.99-2.26-7-9V267c-.04-25.47-20.25-46.96-46-47zm172-209h54c8.64.02 8.98.36 9 9v337c0 3.58.93 16.97-1.6 18.98-1.59 1.25-5.41 1.02-7.4 1.02h-48c-1.95-.04-4.63.1-5.98-1.6-1.25-1.59-1.02-5.41-1.02-7.4V58l1-14zm360 325-3.92 27c-.42 2.53-1.24 9.92-2.39 11.69-1.58 2.41-4.13 2.26-6.69 2.31h-47c-2.19 0-6.52.37-7.87-1.6-1.34-1.76-.31-5.41 0-7.4l2.95-16 14.12-78 36.41-202 8.14-45c.54-3.11 1.74-13.22 3.98-15.01 1.58-1.25 5.3-.99 7.27-.99h64c2.08 0 5.74-.23 7.44 1.02 1.92 1.43 2.26 4.78 2.64 6.98l2.84 17 14.28 82 8.05 47 9.83 56L1693 376l-20 1h-34l-8.41-1.6-2.86-11.4-3.73-28zm219-116v138c0 3.48.92 15.99-1.6 17.98-1.59 1.25-5.41 1.02-7.4 1.02h-48c-7.49-.14-6.99-2.26-7-9V222l1-15V18c.04-1.95-.1-4.63 1.6-5.98 1.59-1.25 5.41-1.02 7.4-1.02h74c33.42 0 56.9-1.85 86 18.91 26.2 18.69 43.95 48.44 44 81.09v10c-.15 12.58-4.22 27.75-9.76 39-4.48 9.13-14.2 26.52-23.24 31 2.34 5.05 7.06 10.01 10.31 15 5.87 9.02 9.07 15.77 12.35 26 5.81 18.14 5.34 31.49 5.34 50v81c0 2.66.48 10.51-1.02 12.4-1.57 1.98-5.68 1.6-7.98 1.6h-48c-7.49-.14-6.99-2.26-7-9V267c-.04-25.47-20.25-46.96-46-47zm501-151.71c-22.84 3.49-35.96 18.58-36 41.71v166c.01 5.13.24 9.02 1.77 14 5.07 16.45 21.43 30.19 39.23 28.54 24.53-2.29 37.96-22.11 38-45.54v-84l-1-15v-65c-.04-23.53-17.68-42.91-42-40.71M563 178h27c19.73 0 30.42.99 43.51-17 19.93-27.36 15.59-86.8-27.51-87h-43zm457-104v63c0 3.58-.93 16.97 1.6 18.98 1.59 1.25 5.41 1.02 7.4 1.02 17.13.03 43.48 2.5 58-6.47 27.01-16.67 26.68-55.45-1-71.19-10.39-5.91-19.61-5.34-31-5.34zm751 0v63c0 3.58-.93 16.97 1.6 18.98 1.59 1.25 5.41 1.02 7.4 1.02 17.13.03 43.48 2.5 58-6.47 27.01-16.67 26.68-55.45-1-71.19-10.39-5.91-19.61-5.34-31-5.34zm235 238h35c26.18-.12 43.96-21.74 44-47V114c-.26-21.83-16.82-39.97-39-40h-39v103l-1 15zm-417-198-3.13 20-5.28 33-12.01 75-5.58 38h50l-6.73-47-11.54-80zM244 133.43c43.35-5.36 74.68 37.65 58.55 77.57-2.83 6.99-5.87 11.33-11.13 16.71-5.37 5.51-11.33 9.83-18.42 12.86-7.36 3.15-16 4.6-24 4.42-48.73-1.11-71.26-60.09-38.71-94.9 9.05-9.69 20.88-14.55 33.71-16.66" />
</svg>
